<?xml version="1.0" standalone="no"?>
<!DOCTYPE svg PUBLIC "-//W3C//DTD SVG 1.1//EN" "http://www.w3.org/Graphics/SVG/1.1/DTD/svg11.dtd" >
<svg xmlns="http://www.w3.org/2000/svg">
<metadata>
Created by FontForge 20120731 at Fri Jun 23 16:39:09 2017
 By admin
</metadata>
<defs>
<font id="iconfont" horiz-adv-x="1024" >
  <font-face 
    font-family="iconfont"
    font-weight="500"
    font-stretch="normal"
    units-per-em="1024"
    panose-1="2 0 6 3 0 0 0 0 0 0"
    ascent="896"
    descent="-128"
    x-height="792"
    bbox="-3 -212.5 1170 896.587"
    underline-thickness="0"
    underline-position="0"
    unicode-range="U+0078-F0044"
  />
<missing-glyph 
 />
    <glyph glyph-name=".notdef" 
 />
    <glyph glyph-name=".null" horiz-adv-x="0" 
 />
    <glyph glyph-name="nonmarkingreturn" horiz-adv-x="341" 
 />
    <glyph glyph-name="x" unicode="x" horiz-adv-x="1001" 
d="M281 543q-27 -1 -53 -1h-83q-18 0 -36.5 -6t-32.5 -18.5t-23 -32t-9 -45.5v-76h912v41q0 16 -0.5 30t-0.5 18q0 13 -5 29t-17 29.5t-31.5 22.5t-49.5 9h-133v-97h-438v97zM955 310v-52q0 -23 0.5 -52t0.5 -58t-10.5 -47.5t-26 -30t-33 -16t-31.5 -4.5q-14 -1 -29.5 -0.5
t-29.5 0.5h-32l-45 128h-439l-44 -128h-29h-34q-20 0 -45 1q-25 0 -41 9.5t-25.5 23t-13.5 29.5t-4 30v167h911zM163 247q-12 0 -21 -8.5t-9 -21.5t9 -21.5t21 -8.5q13 0 22 8.5t9 21.5t-9 21.5t-22 8.5zM316 123q-8 -26 -14 -48q-5 -19 -10.5 -37t-7.5 -25t-3 -15t1 -14.5
t9.5 -10.5t21.5 -4h37h67h81h80h64h36q23 0 34 12t2 38q-5 13 -9.5 30.5t-9.5 34.5q-5 19 -11 39h-368zM336 498v228q0 11 2.5 23t10 21.5t20.5 15.5t34 6h188q31 0 51.5 -14.5t20.5 -52.5v-227h-327z" />
    <glyph glyph-name="ttpodicon" unicode="&#xe6c9;" 
d="M233 460l110 -292l110 292h63v-348h-43v290h-1l-109 -290h-40l-108 290h-1v-290h-44v348h63zM678 112l-123 348h50l100 -302h1l100 302h48l-124 -348h-52z" />
    <glyph glyph-name="ttpodicon1" unicode="&#xe6cd;" 
d="M204 493l121 -324l122 324h71v-386h-49v321h-1l-120 -321h-44l-120 321h-2v-321h-48v386h70zM696 107l-135 386h55l110 -334h1l111 334h54l-137 -386h-59z" />
    <glyph glyph-name="xiaolian" unicode="&#xf0044;" 
d="M671.5 332q26.5 0 45.5 18.5t19 45t-19 45.5t-45.5 19t-45 -19t-18.5 -45.5t18.5 -45t45 -18.5zM352.5 332q26.5 0 45 18.5t18.5 45t-18.5 45.5t-45 19t-45.5 -19t-19 -45.5t19 -45t45.5 -18.5zM744.5 179.5q-9.5 3.5 -19 -1t-13.5 -13.5q-2 -7 -6.5 -16t-21 -31t-37 -38
t-57 -29.5t-78.5 -13.5q-39 0 -74 13.5t-56 30t-39 38t-23.5 30.5t-8.5 16q-5 9 -14.5 12.5t-19 -1t-13 -14t1.5 -19.5q3 -7 10 -18.5t28.5 -38t47.5 -46.5t69 -36.5t91 -16.5q52 0 97 17.5t70.5 38t46 48.5t26 38.5t7.5 18.5q4 9 -0.5 18.5t-14 13zM512 748
q-91 0 -174 -35.5t-143 -95.5t-95.5 -143t-35.5 -174t35.5 -174t95.5 -143t143 -95.5t174 -35.5t174 35.5t143 95.5t95.5 143t35.5 174t-35.5 174t-95.5 143t-143 95.5t-174 35.5zM512 -98q-108 0 -199.5 53.5t-145 145t-53.5 199.5t53.5 199.5t145 145t199.5 53.5
t200 -53.5t145 -145t53 -199.5t-53.5 -199.5t-145 -145t-199.5 -53.5z" />
    <glyph glyph-name="shezhi" unicode="&#xe6a1;" 
d="M321 430v0v0l88 -88l30 31l-33 33l-15 14l77 77l10 -1q4 -1 8 -1q7 0 15 2l-56 56q-1 1 -4 3q14 47 1.5 96t-48.5 85t-85 48.5t-95 -0.5l105 -105l-27 -103l-103 -27l-105 105q-13 -46 -0.5 -95t48.5 -85q38 -37 89.5 -49t99.5 4zM631 367q-3 -11 -2 -23l1 -10l-7 -7
l-54 -54l-15 -15l-48 48l-30 -31l277 -277q25 -26 61.5 -26t62 26t25.5 62t-26 62zM844 27l-43 -12l-36 36l12 44l44 11l35 -35zM507 335l47 -48l55 54q-5 44 26 75t74 26l237 237l-133 133l-237 -237q5 -44 -26 -74.5t-74 -26.5l-54 -54l47 -48l-234 -234l-9 8l-45 -36
l-75 -120l19 -19l119 76l37 45l-9 8z" />
    <glyph glyph-name="xiaolian01" unicode="&#xe60c;" 
d="M455 379q0 29 -20.5 50t-50 21t-50.5 -21t-21 -50.5t21 -50t50.5 -20.5t50 20.5t20.5 50.5v0zM512 748q-91 0 -174.5 -35.5t-143.5 -96t-96 -143.5t-36 -174.5t36 -175t96 -143.5t143.5 -95.5t174.5 -35.5t174.5 35.5t143.5 95.5t96 143.5t36 175t-36 174.5t-96 143.5
t-143.5 96t-174.5 35.5v0zM515 -95q-105 0 -194 52t-141 141t-52 194.5t52 194.5t141 141t194.5 52t194.5 -52t141 -141t52 -194.5t-52 -194.5t-141 -141t-195 -52v0zM659 450q-30 0 -50.5 -21t-20.5 -50.5t20.5 -50t50 -20.5t50.5 20.5t21 50t-21 50.5t-50 21v0zM662 135
q15 0 25.5 9.5t10.5 24.5t-10.5 24.5t-25.5 9.5q-7 -5 -21 -12.5t-51 -20t-69 -12.5q-33 0 -70.5 11t-58.5 23l-21 11q-15 0 -25.5 -9.5t-10.5 -24.5t10.5 -24.5t25.5 -9.5q8 -5 22.5 -12t53.5 -19t72 -12q32 0 68 10.5t56 21.5l19 11v0zM662 160z" />
    <glyph glyph-name="duihao" unicode="&#xe601;" 
d="M518 664q-91 0 -168 -44.5t-121.5 -121.5t-44.5 -168t44.5 -168t121.5 -121.5t168 -44.5t168 44.5t121.5 121.5t44.5 168t-44.5 168t-121.5 121.5t-168 44.5zM725 421l-248 -286q-10 -12 -26 -12q-1 0 -3 1q-17 1 -26 16l-95 150l-10 -7q-12 -8 -26 -6t-22.5 13.5
t-6.5 26t14 22.5l40 30q12 8 27 5.5t23 -15.5l90 -142l216 250q10 11 24.5 12t25 -8.5t11.5 -24t-8 -25.5z" />
    <glyph glyph-name="tuwen01" unicode="&#xe615;" horiz-adv-x="1171" 
d="M0 812v-1024h1170v1024h-1170zM1097 -139h-1024v878h1024v-878zM146 593h366v-220h-366v220zM146 227h732v-73h-732v73zM146 81h805v-74h-805v74z" />
    <glyph glyph-name="wode" unicode="&#xe624;" 
d="M29 -78v21q0 88 43.5 162.5t118.5 118t164 43.5h315q88 0 163 -43.5t118.5 -118t43.5 -162.5v-21q0 -36 -53 -65t-138.5 -44t-188.5 -22t-206 0t-188 22t-138.5 44t-53.5 65zM512 312q-95 0 -162.5 73t-67.5 177t67.5 177t162.5 73t162.5 -73t67.5 -177t-67.5 -177
t-162.5 -73z" />
    <glyph glyph-name="jifen" unicode="&#xe606;" 
d="M704 -127q-89 0 -152.5 32t-63.5 77v280q0 45 63.5 77t153 32t153 -32t63.5 -77v-280q0 -45 -63.5 -77t-153.5 -32v0v0zM704 324q-32 0 -60.5 -4.5t-48 -11.5t-33.5 -15.5t-21 -16.5t-7 -14t7 -13.5t21 -16t33.5 -16t48 -12t60.5 -4.5t61 4.5t48 12t33.5 16t21.5 16
t7 13.5t-7 14t-21.5 16.5t-33.5 15.5t-48 11.5t-61 4.5v0v0zM874 195q-65 -42 -169.5 -42t-170.5 42v-73q0 -6 7 -13.5t21 -16t33.5 -16t48 -12t60.5 -4.5t61 4.5t48 12t33.5 16t21 16t6.5 13.5v73v0v0zM874 55q-65 -42 -169.5 -42t-170.5 42v-73q0 -6 7 -13.5t21 -16
t33.5 -16t48 -12t60.5 -4.5t61 4.5t48 12t33.5 16t21 16t6.5 13.5v73v0v0zM704 458q-101 -63 -264 -63t-265 63v-111q0 -8 10.5 -20t33 -25t52.5 -24t74.5 -18t94.5 -7h9h8v-71l-7 -0.5t-10 -0.5q-163 0 -265 64v-111q0 -9 10.5 -21t33 -25t52.5 -23.5t74.5 -18t94.5 -7.5
q3 0 9 0.5t8 0.5v-29q0 -22 17 -42q-17 -1 -34 -1q-91 0 -169 22.5t-123 60.5t-45 83v427q0 45 45 83t123 60.5t169 22.5t168.5 -22.5t123 -60.5t45.5 -83v-167q-34 9 -73 12v52v0v0zM440 656q-50 0 -94.5 -7.5t-74.5 -18.5t-52.5 -24t-33 -24.5t-10.5 -20.5t10.5 -21
t33 -25t52.5 -24t74.5 -18t94.5 -7t94.5 7t74.5 18t52.5 24t32.5 25t10 21t-10 20.5t-32.5 24.5t-52.5 24t-74.5 18.5t-94.5 7.5v0v0z" />
    <glyph glyph-name="yanjing" unicode="&#xe68f;" 
d="M502 561q-58 0 -113.5 -14t-98 -37t-80 -51t-64 -55.5t-45 -50.5t-28.5 -37.5t-9 -14.5q4 -5 12 -14.5t33.5 -36.5t53 -51.5t69.5 -55t84 -52t94.5 -36t104 -14.5t103.5 14.5t94.5 37.5t82 51t68.5 56t51 51t33 38l11 14q-3 6 -10 15t-30.5 36t-49.5 51.5t-67 54t-84 51
t-100 36t-115 14.5v0zM511 111q-89 0 -151.5 55.5t-62.5 134.5t62.5 134.5t151.5 55.5t152 -55.5t63 -134.5t-63 -134.5t-152 -55.5v0zM375 301q0 24 10.5 46t29.5 39t44 26.5t52 9.5t52 -9.5t44 -26.5t29.5 -39t10.5 -46t-10.5 -46t-29.5 -39t-44 -26.5t-52 -9.5t-52 9.5
t-44 26.5t-29.5 39t-10.5 46v0zM375 301z" />
    <glyph glyph-name="iconfontxiaolian" unicode="&#xe6b7;" 
d="M512 745q-91 0 -173 -35.5t-141.5 -95t-95 -141.5t-35.5 -173t35.5 -173t95 -141.5t141.5 -95t173 -35.5t173 35.5t141.5 95t95 141.5t35.5 173t-35.5 173t-95 141.5t-141.5 95t-173 35.5zM350 534q32 0 54.5 -27t22.5 -64.5t-22.5 -64t-54.5 -26.5t-54.5 26.5t-22.5 64
t22.5 64.5t54.5 27zM510 43q-57 2 -102.5 21t-69.5 41.5t-40.5 51.5t-20 40t-5.5 18v0q56 -45 112 -70t101.5 -27.5t87.5 4.5t73 23t54 31.5t35 26.5l12 12q-9 -35 -26.5 -63.5t-37.5 -46t-45 -30t-44.5 -18.5t-41 -9.5t-29.5 -4t-13 -0.5zM674.5 352q-31.5 0 -54 26.5
t-22.5 64t22.5 64.5t54 27t54 -27t22.5 -64.5t-22.5 -64t-54 -26.5z" />
    <glyph glyph-name="border-circle" unicode="&#xe616;" 
d="M512 732q114 0 210.5 -56t153 -153t56.5 -210.5t-56.5 -210.5t-153 -153t-210.5 -56t-210.5 56t-153 153t-56.5 210.5t56.5 210.5t153 153t210.5 56zM512 760q-91 0 -174 -35.5t-143 -95.5t-95.5 -143t-35.5 -174t35.5 -173.5t95.5 -142.5t143 -95.5t174 -35.5t174 35.5
t143 95.5t95.5 142.5t35.5 173.5t-35.5 174t-95.5 143t-143 95.5t-174 35.5v0z" />
    <glyph glyph-name="mv" unicode="&#xe604;" 
d="M945 680h-867q-30 0 -51 -21t-21 -51v-614q0 -31 21 -52t51 -21h867q30 0 51.5 21.5t21.5 51.5v614q0 30 -21.5 51t-51.5 21zM982 -6q0 -15 -11 -26t-26 -11h-867q-15 0 -25.5 10.5t-10.5 26.5v614q0 15 10.5 25.5t25.5 10.5h867q15 0 26 -10.5t11 -25.5v-614zM321 194
l-111 275h-79v-337h52v287l109 -287h53l105 287v-287h53v337h-80zM718 182l-115 287h-63l145 -337h64l144 337h-58z" />
    <glyph glyph-name="sousuo" unicode="&#xe66a;" 
d="M967 -109l-8 -8q-6 -6 -15 -6t-16 6l-228 228q-106 -95 -248 -95q-101 0 -186.5 49.5t-135 135t-49.5 186.5t49.5 186.5t135 135.5t186.5 50t186.5 -50t135 -135.5t49.5 -186.5q0 -134 -85 -237l229 -228q6 -7 6 -16t-6 -15zM769 387q0 131 -93 224t-224 93t-224 -93
t-93 -224t93 -224t224 -93t224 93t93 224zM419 581q-62 -10 -106 -54.5t-55 -106.5q0 -1 -1 -5q-7 -28 -29 -28q-11 0 -18.5 7.5t-7.5 18.5q0 3 1 8t1 7q13 76 65.5 131.5t126.5 72.5q12 3 20 2q11 -1 18 -8.5t7 -16.5q-1 -11 -6.5 -18t-10.5 -9z" />
    <glyph glyph-name="iconfontwujiaoxing" unicode="&#xe619;" 
d="M910 388l-265 38l-119 241l-119 -241l-265 -38l192 -188l-45 -264l237 124l237 -124l-45 264zM526 119l-168 -89l31 188l-136 133l189 27l84 171l84 -171l188 -27l-136 -133l32 -188z" />
    <glyph glyph-name="sousuo1" unicode="&#xe6b5;" 
d="M948 -82l-168 167q93 112 93 258q0 110 -54 203.5t-147.5 147.5t-203 54t-203 -54t-147.5 -147.5t-54 -203t54 -203t147.5 -147.5t202.5 -54q145 0 257 92l168 -168q11 -11 27 -11t27.5 11.5t11.5 27.5t-11 27zM145 343.5q0 87.5 43.5 162t118 118t162 43.5t162 -43.5
t118 -118t43.5 -162t-43.5 -162t-118 -118t-162 -43.5t-162 43.5t-118 118t-43.5 162z" />
    <glyph glyph-name="mv1" unicode="&#xe8a5;" 
d="M520 439h-3v0q-2 0 -3 -1q-11 -2 -16 -11l-102 -193l-102 194q-9 15 -26 11v0q-2 -1 -3 -1q-2 -1 -3 -2h-0.5h-0.5v0q-4 -2 -7 -6v0q-3 -4 -4 -8v0q-1 -4 -1 -6v-232q0 -10 7 -16.5t16.5 -6.5t16.5 6.5t7 16.5v138l78 -150q10 -16 28 -10q11 2 16 11l79 149v-138
q0 -10 6.5 -16.5t16 -6.5t16.5 6.5t7 16.5v232q0 10 -7 16.5t-16 6.5zM776.5 437q-8.5 4 -17.5 0.5t-12 -12.5l-73 -178l-72 178q-4 9 -13 12.5t-17.5 -0.5t-12 -13t0.5 -18l92 -226q2 -12 13 -17q4 -2 9.5 -2t9.5 2q10 5 13 17l91 226q4 9 0.5 18t-12 13zM775 702h-526
q-77 0 -131 -54.5t-54 -131.5v-432q0 -77 54 -131.5t131 -54.5h526q77 0 131 54.5t54 131.5v432q0 77 -54 131.5t-131 54.5zM914 84q0 -58 -41 -98.5t-98 -40.5h-526q-57 0 -98 40.5t-41 98.5v432q0 58 41 98.5t98 40.5h526q57 0 98 -40.5t41 -98.5v-432z" />
    <glyph glyph-name="iconfonttupian" unicode="&#xe688;" 
d="M769.5 530q-27.5 0 -47.5 -20t-20 -48t20 -47.5t47.5 -19.5t47.5 19.5t20 47.5t-20 48t-47.5 20zM5 706v-504v-239v-68h68h878h68v68v78v665h-1014zM768 291l-151 -152l-337 338l-241 -241v436h946v-597z" />
    <glyph glyph-name="yanjing1" unicode="&#xe697;" 
d="M513 118q68 0 116 50t48 120t-48 120t-116 50t-116 -50t-48 -120t48 -120t116 -50zM513.5 418q51.5 0 88 -38t36.5 -92t-36.5 -92t-88 -38t-88.5 38t-37 92t37 92t88.5 38zM42 286q59 -152 188.5 -242.5t287 -90.5t287 90.5t188.5 242.5l3 7l-3 7q-59 152 -188.5 242.5
t-287 90.5t-287 -90.5t-188.5 -242.5l-3 -7zM517.5 594q143.5 0 262 -82t174.5 -219q-56 -137 -174.5 -218.5t-262 -81.5t-262 81.5t-174.5 218.5q56 137 174.5 219t262 82z" />
    <glyph glyph-name="contextxiaolian" unicode="&#xe6b6;" horiz-adv-x="1051" 
d="M956 85v0v0v0v0zM875 746q-73 74 -169 112t-193.5 38t-193 -38t-169.5 -111.5t-112 -169.5t-38 -193t38 -192.5t112 -169t169.5 -112t193 -38.5t193.5 38.5t169.5 112t112 169t38.5 192.5t-38.5 193t-112.5 169v0zM823 74q-84 -84 -197 -114t-226.5 0t-197.5 114
t-114 197t0 226t114 197t197.5 114t226.5 0t197 -114t114 -197t0 -226t-114 -197v0zM353 438q22 0 38.5 16t16.5 39t-16.5 39t-39 16t-39 -16t-16.5 -39t16.5 -39t39.5 -16v0zM671 438q22 0 38.5 16t16.5 39t-16.5 39t-39 16t-39 -16t-16.5 -39t16.5 -39t39.5 -16v0z
M673 253l-3 -1q-75 -34 -158 -34q-86 0 -160 34l-3 1q-5 1 -8 1q-13 0 -22.5 -9.5t-9.5 -22.5q0 -14 10 -24v-2l8 -4q90 -40 185 -40q96 0 186 41q17 9 17 28q0 17 -13 27t-29 5v0z" />
    <glyph glyph-name="xinxi" unicode="&#xe6aa;" 
d="M293.5 496q-27.5 0 -47 -19.5t-19.5 -47t19.5 -47t47 -19.5t47 19.5t19.5 47t-19.5 47t-47 19.5zM516.5 496q-27.5 0 -47 -19.5t-19.5 -47t19.5 -47t47 -19.5t47 19.5t19.5 47t-19.5 47t-47 19.5zM516 830q-133 0 -245.5 -53.5t-178 -146t-65.5 -200.5q0 -80 36.5 -152
t101.5 -127l-49 -211l263 105q68 -16 137 -16q133 0 246 53.5t178.5 146t65.5 201t-65.5 201t-178.5 146t-246 53.5zM516 73q-64 0 -127 15q-5 2 -10 2q-9 0 -17 -4l-183 -73l29 127q7 27 -14 45q-60 50 -91.5 113t-31.5 132q0 96 59.5 178t162.5 130t223.5 48t223 -48
t162.5 -130t60 -178.5t-60 -178.5t-162.5 -130t-223.5 -48zM739 496q-28 0 -47.5 -19.5t-19.5 -47t19.5 -47t47.5 -19.5t47.5 19.5t19.5 47t-19.5 47t-47.5 19.5z" />
    <glyph glyph-name="zhtslxiaolian" unicode="&#xe60b;" 
d="M502.5 742q-99.5 0 -184 -49t-134 -133.5t-49.5 -184.5t49.5 -184.5t134 -134t184 -49.5t184.5 49.5t134 134t49 184.5t-49 184.5t-134 133.5t-184.5 49zM502.5 49q-88.5 0 -163.5 43.5t-118.5 118.5t-43.5 163.5t43.5 163.5t118.5 119t163.5 44t163.5 -44t118.5 -119
t43.5 -163.5t-43.5 -163.5t-118.5 -118.5t-163.5 -43.5zM510 238q-86 -1 -145 62l-32 -27q33 -37 79.5 -57.5t98.5 -19.5q99 1 169 72l-31 29q-57 -59 -139 -59zM601 467.5q0 17.5 12 29.5t29.5 12t29.5 -12t12 -29.5t-12 -29.5t-29.5 -12t-29.5 12t-12 29.5zM321 467.5
q0 17.5 12.5 29.5t29.5 12t29 -12t12 -29.5t-12 -29.5t-29 -12t-29.5 12t-12.5 29.5z" />
    <glyph glyph-name="kunzyqixiaolian" unicode="&#xe68a;" 
d="M512 832q-91 0 -174 -35.5t-143 -95.5t-95.5 -143t-35.5 -174t35.5 -174t95.5 -143t143 -95.5t174 -35.5t174 35.5t143 95.5t95.5 143t35.5 174t-35.5 174t-95.5 143t-143 95.5t-174 35.5v0zM512 1q-104 0 -192 51.5t-139.5 139.5t-51.5 192t51.5 192t139.5 139.5
t192 51.5t192 -51.5t139.5 -139.5t51.5 -192t-51.5 -192t-139.5 -139.5t-192 -51.5v0zM301 504q0 26 19 45t46 19t46 -19t19 -45.5t-19 -45.5t-46 -19t-46 19t-19 46v0zM593 504q0 26 19 45t46 19t46 -19t19 -45.5t-19 -45.5t-46 -19t-46 19t-19 46v0zM519 191
q-51 0 -93.5 28.5t-62.5 73.5h-47q22 -64 77.5 -105t125.5 -41t126 41t78 105h-47q-20 -45 -62.5 -73.5t-94.5 -28.5v0zM519 191z" />
    <glyph glyph-name="jifen1" unicode="&#xe666;" 
d="M1018 71q-100 -20 -202 -41l-135 -151l-145 248l-25 -1h-8t-9 0.5t-8 0.5l-145 -248q-68 75 -135 151q-200 41 -202 41l158 270q-40 80 -40 169q0 104 52 192.5t141.5 139.5t195.5 51t195.5 -51t141.5 -139.5t52 -192.5q0 -88 -40 -169l158 -270v0zM688 -6q49 46 95 90
l130 38l-92 157q-83 -109 -216 -142l83 -143v0zM108 122q66 -19 131 -38l94 -90l84 143q-133 33 -217 142l-92 -157v0zM511 830q-131 0 -224 -93t-93 -224t93 -224.5t224 -93.5t223.5 93.5t92.5 224.5t-92.5 224t-223.5 93v0zM511 291q-92 0 -157 65t-65 157t65 157t157 65
t157 -65t65 -157t-65 -157t-157 -65v0z" />
    <glyph glyph-name="iconfontxinxi" unicode="&#xe649;" horiz-adv-x="1164" 
d="M343 376q-37 0 -63.5 26.5t-26.5 63.5t26.5 63.5t63.5 26.5t63.5 -26.5t26.5 -63.5t-26.5 -63.5t-63.5 -26.5zM343.5 498q-13.5 0 -23 -9.5t-9.5 -23t9.5 -23t23 -9.5t23 9.5t9.5 23t-9.5 23t-23 9.5zM588 376q-37 0 -63.5 26.5t-26.5 63.5t26.5 63.5t63.5 26.5
t63.5 -26.5t26.5 -63.5t-26.5 -63.5t-63.5 -26.5zM588.5 498q-13.5 0 -23 -9.5t-9.5 -23t9.5 -23t23 -9.5t23 9.5t9.5 23t-9.5 23t-23 9.5zM772 833h-368q-127 0 -216.5 -89.5t-89.5 -217.5v-136q0 -56 22 -108.5t57 -90.5t78.5 -62.5t87.5 -30.5v-183l306 183h123
q129 0 217.5 83t88.5 209v136q0 127 -89.5 217t-216.5 90zM1017 404q0 -101 -71.5 -172.5t-173.5 -71.5h-123l-245 -144v144h-30q-92 11 -153 81t-61 163v122q0 102 71.5 174t172.5 72h368q101 0 173 -72t72 -174v-122zM833 376q-37 0 -63.5 26.5t-26.5 63.5t26.5 63.5
t63.5 26.5t63.5 -26.5t26.5 -63.5t-26.5 -63.5t-63.5 -26.5zM833 498q-13 0 -22.5 -9.5t-9.5 -23t9.5 -23t22.5 -9.5t23 9.5t10 23t-10 23t-23 9.5z" />
    <glyph glyph-name="iconfontjifen" unicode="&#xe6fc;" 
d="M527 312v-51q0 -6 12.5 -14.5t40.5 -15.5t63 -7t63 7t40.5 15.5t12.5 14.5v51q-44 -24 -116 -24t-116 24zM527 206v-50q0 -7 12.5 -15t40.5 -15.5t63 -7.5t63 7.5t40.5 15.5t12.5 15v50q-44 -24 -116 -24t-116 24zM457 510q83 0 137 22.5t54 47t-54 47.5t-137 23
t-137.5 -23t-54.5 -47.5t54.5 -47t137.5 -22.5zM643 404q-35 0 -63 -7t-40.5 -15.5t-12.5 -15t12.5 -14.5t40.5 -15.5t63 -7.5t63 7.5t40.5 15.5t12.5 14.5t-12.5 15t-40.5 15.5t-63 7zM512 896q-139 0 -257 -68.5t-186.5 -186.5t-68.5 -257t68.5 -257t186.5 -186.5
t257 -68.5t257 68.5t186.5 186.5t68.5 257t-68.5 257t-186.5 186.5t-257 68.5zM457 346v-42q-56 0 -107.5 12t-84.5 34v-98q0 -25 54.5 -47.5t137.5 -22.5v-42q-59 0 -111 12.5t-87.5 38.5t-35.5 61v328q0 34 35.5 60t87.5 38.5t110.5 12.5t111 -12.5t87.5 -38.5t35 -60
v-120h-42v54q-32 -22 -84 -34t-107.5 -12t-107 12t-84.5 34v-98q0 -25 54.5 -47.5t137.5 -22.5zM801 155v0q-1 -32 -43 -55t-115 -23t-115 23.5t-42 55.5v211q0 32 42 55.5t115.5 23.5t115.5 -23.5t42 -55.5v-212z" />
    <glyph glyph-name="naoling" unicode="&#xe605;" 
d="M339 -45h346v-70h-346v70zM166 96q6 0 11 10t11 25t10 23q15 24 25.5 44.5t19.5 44.5q26 64 39 103q19 57 19 115q0 32 13 83q6 26 32 64q6 13 38 45q26 17 51 25q13 7 77 7h70q20 -7 58 -32q27 -18 45 -45q25 -38 32 -64q13 -51 13 -83q0 -58 19 -115q13 -39 38 -103
q6 -14 14 -30t17.5 -33.5t13.5 -25.5q4 -7 12 -23t14.5 -25.5t11.5 -9.5h-704zM512 826q14 0 23 -9t9 -23.5t-9 -23t-23 -8.5t-23 8.5t-9 23.5q16 32 32 32zM928 134q-26 39 -45 64q-6 13 -22 38.5t-23 38.5q-23 47 -32 90q-12 64 -12 89q0 39 -13 103q-13 32 -39 83
q-27 37 -64 64q-19 13 -70 38q6 13 6 45q0 48 -29 78.5t-73 30.5q-39 0 -67.5 -30t-28.5 -72q0 -7 3 -23t3 -22h-6q-7 -4 -18 -9t-17.5 -8t-16 -9t-18.5 -13q-41 -30 -58 -64q-19 -19 -45 -83q-13 -64 -13 -102q0 -32 -12 -96q-7 -16 -19.5 -45t-19.5 -45q-25 -51 -45 -77
q-4 -9 -19 -34t-19 -36q-23 -38 -6 -70q21 -32 51 -32h736q13 0 25 12q1 1 7.5 6t9.5 9.5t3 10.5q1 3 4 8t4.5 8t2.5 7t1 9q11 21 -6 38z" />
    <glyph glyph-name="iconfontxiaolian1" unicode="&#xe600;" 
d="M1019 399v-32q-1 -11 -1 -12q-9 -69 -9 -71q-33 -161 -153 -272q-125 -115 -294 -132q-2 0 -33 -3h-32l-12 2q-69 8 -71 9q-163 33 -275 155q-113 124 -129 291q0 2 -3 33v32q2 13 2 14q8 67 8 70q33 162 155 273q124 114 292 130q1 1 33 4h32q12 -2 13 -2q68 -9 71 -9
q161 -33 272 -153q114 -125 131 -293q0 -2 3 -34zM512 -104q100 1 190 39t155 103t104 155t39 189t-38 189t-102.5 155.5t-155 104.5t-190.5 39q-99 1 -189.5 -37.5t-155.5 -103.5t-104 -155t-39 -189t38 -189t103 -155.5t155 -104.5t190 -40zM854 341q-25 -166 -158 -247
q-184 -113 -367 1q-132 81 -157 246h682zM676 538q0 22 14 42q17 24 43.5 25t45.5 -21q18 -22 16.5 -52.5t-21.5 -50.5q-16 -15 -37.5 -15.5t-37.5 14.5q-23 21 -23 58zM350 535q0 -33 -22 -54q-17 -16 -38 -16t-38 16q-20 20 -21.5 50.5t16.5 52.5q19 22 45.5 21t43.5 -25
q14 -19 14 -45z" />
    <glyph glyph-name="iconfontjifen1" unicode="&#xe602;" 
d="M420 525q92 0 178.5 20t140.5 57v-92h70v200q0 58 -59 101.5t-146 64t-184.5 20.5t-184.5 -20.5t-145.5 -64t-58.5 -101.5v-547q0 -57 58.5 -100.5t145.5 -64t185 -20.5v69q-71 0 -133 11.5t-101.5 28.5t-62.5 37.5t-23 38.5v165q55 -37 141 -57t179 -20v70
q-71 0 -133 11t-101.5 28.5t-62.5 37.5t-23 39v164q55 -36 141 -56t179 -20v0zM420 827q71 0 133 -11.5t101.5 -29t62 -37.5t22.5 -38.5t-22.5 -38.5t-62 -37.5t-101.5 -29t-133 -11.5t-133 11.5t-101.5 29t-62.5 37.5t-23 38.5t23 38.5t62.5 37.5t101.5 29t133 11.5v0z
M731 487q-122 0 -192.5 -39.5t-70.5 -92.5v-351q0 -53 70.5 -92.5t192.5 -39.5q121 0 191 39t71 91v0v353q0 53 -70 92.5t-192 39.5v0zM731 418q36 0 68.5 -5t54.5 -12t38 -15.5t24 -16.5t8 -14t-8 -13.5t-24 -16t-38 -16t-54.5 -12t-69 -4.5t-68.5 4.5t-54 12t-38.5 16
t-24 16t-7.5 13.5t7.5 14t24 16.5t38.5 15.5t54 12t69 5v0zM731 -59q-37 0 -69 5t-54 12t-38.5 15.5t-24 16.5t-7.5 14v84q73 -40 192.5 -40t193.5 40v-84q0 -6 -8 -14t-24 -16.5t-38 -15.5t-54.5 -12t-68.5 -5v0zM731 117q-37 0 -69 5t-54 12t-38.5 15.5t-24 16.5t-7.5 13
v84q73 -39 192.5 -39t193.5 39v-84q0 -5 -8 -13t-24 -16.5t-38 -15.5t-54.5 -12t-68.5 -5v0zM731 117z" />
    <glyph glyph-name="iconfontgengduo" unicode="&#xe836;" 
d="M569 356l28 28v0v0l-28 28v0l-452 452l-28 -28l452 -452l-452 -451l28 -28zM427 835l452 -452l-452 -451l28 -28l480 480l-28 28v0l-451 451zM427 835z" />
    <glyph glyph-name="tuwen" unicode="&#xe6a0;" 
d="M883 2h-714q-32 0 -66 24t-34 54v130v56v424q0 32 21 55t50 23h743q30 0 50.5 -23t20.5 -55v-610q0 -32 -20.5 -55t-50.5 -23zM890 697h-757v-522l153 168l54 4l324 -225l176 154l25 27l25 -59v453zM724.5 460q-35.5 0 -61 27.5t-25.5 67t25.5 67t61 27.5t61 -27.5
t25.5 -67t-25.5 -67t-61 -27.5zM724.5 586q-11.5 0 -20 -9.5t-8.5 -22.5t8.5 -22t20 -9t20 9t8.5 22t-8.5 22.5t-20 9.5zM289 347l-3 -4v0z" />
    <glyph glyph-name="sousuo2" unicode="&#xe6d8;" 
d="M894 77l-239 242q73 77 73 205t-86.5 217t-212.5 89t-215 -90t-89 -216q0 -127 88 -213.5t214 -86.5q115 0 188 57l241 -244q7 -6 16 -6t20 11q7 7 8 17.5t-6 17.5zM173 527.5q0 105.5 74 180t178.5 74.5t178.5 -74.5t74 -180t-74 -180t-178.5 -74.5t-178.5 74.5t-74 180
z" />
    <glyph glyph-name="xiaolian011" unicode="&#xe66b;" 
d="M865 650q0 32 -23.5 55.5t-56.5 23.5h-521q-33 0 -56.5 -23.5t-23.5 -55.5v-57q0 -2 0.5 -4.5t0.5 -3.5h-1v-439q0 -41 26.5 -69.5t64.5 -28.5h500q37 0 63.5 28.5t26.5 69.5v439h-1l0.5 3t0.5 5v57zM790 98h-531q-13 0 -22.5 9t-9.5 22v394q18 -9 37 -9h521q19 0 37 9
v-394q0 -13 -9 -22t-23 -9zM822 585v-14q-6 -12 -27 -12h-541q-21 0 -27 13v13h-1v80q0 8 8 13.5t20 5.5h541q12 0 20 -5.5t8 -13.5v-80h-1zM764 448h-96q-7 0 -12.5 -5t-5.5 -12.5t5.5 -12.5t12.5 -5h29q-8 -65 -57 -109t-115.5 -44t-115.5 44t-56 109h30q7 0 12.5 5
t5.5 12.5t-5.5 12.5t-12.5 5h-96q-7 0 -12.5 -5t-5.5 -12.5t5.5 -12.5t12.5 -5h29q8 -80 67.5 -134.5t141 -54.5t141.5 54.5t67 134.5h31q8 0 13 5t5 12.5t-5 12.5t-13 5z" />
    <glyph glyph-name="iconfonttuwen" unicode="&#xe61e;" 
d="M188 -35q-39 0 -67.5 28t-28.5 68v646q0 40 28.5 68.5t67.5 28.5h647q40 0 68 -28.5t28 -68.5v-646q0 -40 -28 -68t-68 -28h-647zM612 311h-3q-13 -1 -24 -17l-193 -264q-1 0 -0.5 -0.5t1.5 -0.5h442q13 0 22.5 9.5t9.5 22.5v19v1l-55 48q-19 19 -3 39q8 10 22 10
q13 0 22 -9l12 -11h1h1v1v549q0 13 -9.5 22.5t-22.5 9.5h-647q-13 0 -22.5 -9.5t-9.5 -22.5v-442l1 -1v0q1 0 1 1l108 157q22 33 59 36h7q33 0 58 -25l127 -129v0v0h1l28 34q22 31 59 34q3 1 7 1q32 0 57 -24l125 -119q8 -7 8 -20q-1 -13 -11 -21q-8 -6 -19 -6q-12 0 -22 8
h-1l-116 110q-10 9 -21 9zM332 396h-2q-12 -1 -20 -13l-154 -224v-98q0 -13 9.5 -22.5t22.5 -9.5h123h1l165 228q1 1 0 2l-125 128q-9 9 -20 9zM694.5 439q-53.5 0 -91 37.5t-37.5 91t37.5 91t91 37.5t91.5 -37.5t38 -91t-38 -91t-91.5 -37.5zM776 567.5q0 33.5 -24 57.5
t-57.5 24t-57.5 -24t-24 -57.5t24 -57.5t57.5 -24t57.5 24t24 57.5z" />
    <glyph glyph-name="wenhao" unicode="&#xe626;" 
d="M511.5 779q80.5 0 153.5 -31q71 -30 125.5 -85t84.5 -125q31 -74 31 -154t-31 -154q-30 -70 -84.5 -125t-125.5 -85q-73 -31 -153.5 -31t-153.5 31q-71 30 -126 85t-85 125q-31 74 -31 154t31 154q30 70 85 125t126 85q73 31 153.5 31zM511 831q-91 0 -173.5 -35.5
t-142.5 -95.5t-95.5 -142.5t-35.5 -173.5t35.5 -173.5t95.5 -142.5t142.5 -95.5t173.5 -35.5t174 35.5t142.5 95.5t95 142.5t35.5 173.5t-35.5 173.5t-95 142.5t-142.5 95.5t-174 35.5v0zM392 455q1 39 9.5 59.5t26.5 36.5t40 23.5t46 7.5q50 0 83 -29t33 -78
q0 -21 -8.5 -39t-36 -44.5t-36.5 -37.5t-13.5 -26.5t-4.5 -42.5h-48q0 31 5 49.5t15 32t35.5 40t33 38.5t7.5 35.5t-17 42t-49 18.5q-73 0 -73 -86h-48zM535 186h-53v55h53v-55z" />
    <glyph glyph-name="duihao1" unicode="&#xe60f;" horiz-adv-x="1025" 
d="M405 -116.5q-136 29.5 -237 121t-143.5 221t-13 265.5t121 237t221 143.5t265.5 13t237 -121t143.5 -221t13 -265.5t-121 -237t-221 -143.5t-265.5 -13zM749 515q9 10 8.5 23.5t-10.5 22t-23 8t-22 -10.5l-274 -304l-90 128q-7 11 -20 14t-24.5 -3.5t-14.5 -19.5t4 -24
l115 -163q7 -11 19.5 -14.5t24.5 3.5q2 1 78.5 86t152.5 169.5z" />
    <glyph glyph-name="renwu" unicode="&#xe676;" 
d="M333 521h366q11 0 19 8t8 18.5t-8 18.5t-19 8h-366q-11 0 -19 -8t-8 -18.5t8 -18.5t19 -8zM333 364h285q10 0 18 8t8 18.5t-8 18.5t-18 8h-285q-11 0 -19 -8t-8 -18.5t8 -18.5t19 -8zM333 207h366q11 0 19 8t8 18.5t-8 18.5t-19 8h-366q-11 0 -19 -8t-8 -18.5t8 -18.5
t19 -8zM778 731h-26q-11 0 -18.5 -7.5t-7.5 -18.5q0 -16 36 -16h26q21 0 36.5 -20t15.5 -43v-498q0 -21 -20 -41.5t-42 -20.5h-524q-22 0 -42 20.5t-20 41.5v498q0 24 11 43.5t31 19.5h36q36 0 36 16q0 11 -7.5 18.5t-18.5 7.5h-26q-43 0 -74 -30.5t-31 -74.5v-498
q0 -43 31 -73.5t74 -30.5h524q43 0 74 30.5t31 73.5v498q0 44 -31 74.5t-74 30.5zM358 679h309q16 0 27.5 11.5t11.5 27.5t-11.5 27.5t-27.5 11.5h-100q-1 21 -15.5 35.5t-35.5 14.5t-35.5 -14.5t-15.5 -35.5h-107q-17 0 -28.5 -11.5t-11.5 -27.5t11.5 -27.5t28.5 -11.5z
" />
    <glyph glyph-name="duihao2" unicode="&#xe610;" 
d="M510.5 832q-90.5 0 -173.5 -35.5t-142.5 -95.5t-95 -142.5t-35.5 -173.5t35.5 -173.5t95 -142.5t142.5 -95.5t173.5 -35.5t173.5 35.5t142.5 95.5t95 142.5t35.5 173.5t-35.5 173.5t-95 142.5t-142.5 95.5t-173.5 35.5zM459 223l2 -2l-35 -35l-2 3l-2 -3l-36 36l3 2
l-201 200l35 35l200 -200l325 324l35 -35z" />
    <glyph glyph-name="i-xie" unicode="&#xe73c;" 
d="M930 -128h-836q-39 0 -66.5 27t-27.5 67v836q0 39 27.5 66.5t66.5 27.5h558q13 0 22 -9t9 -22t-9 -21.5t-22 -8.5h-527q-26 0 -44 -18t-18 -44v-775q0 -25 18 -43t44 -18h774q26 0 44 18t18 43v494v63q0 12 9 21t21.5 9t21.5 -9t9 -21v-589q2 -39 -25.5 -66.5
t-66.5 -27.5v0zM425 283q-9 -9 -22 -9t-22 9t-9 22.5t9 22.5l556 559q9 9 22 9t22 -8.5t9 -22t-9 -22.5zM425 283z" />
    <glyph glyph-name="icon0723xie" unicode="&#xe708;" 
d="M867.5 542q-13.5 0 -23 -9.5t-9.5 -22.5v-413q0 -15 -10.5 -26t-25.5 -11h-574q-15 0 -25.5 11t-10.5 26v574q0 15 10.5 25.5t25.5 10.5h390q14 0 23.5 9.5t9.5 23t-9.5 23t-23.5 9.5h-413q-32 0 -55 -23t-23 -55v-620q0 -33 23 -55.5t55 -22.5h620q32 0 55 22.5t23 55.5
v436q0 13 -9.5 22.5t-23 9.5zM398 325.5q0 -13.5 9.5 -23t23 -9.5t23.5 9l412 415q10 10 10 23t-9.5 22.5t-23 9.5t-23.5 -9l-412 -415q-10 -9 -10 -22.5z" />
    <glyph glyph-name="iconfontxiaolian2" unicode="&#xe617;" 
d="M504 -127q-103 0 -196 40t-160.5 107.5t-107.5 160.5t-40 195t40 195.5t107.5 160.5t160.5 107t195.5 40t195.5 -40t160.5 -107t107.5 -160.5t40 -195.5t-40 -195t-107.5 -160.5t-160.5 -107.5t-195 -40v0zM504 847q-96 0 -183.5 -37t-150.5 -100.5t-100.5 -150.5
t-37.5 -182.5t37.5 -183t100.5 -150.5t150.5 -100.5t183 -37.5t183 37.5t150.5 100.5t100.5 150.5t37.5 183t-37.5 182.5t-100.5 150.5t-150.5 100.5t-182.5 37v0zM252 545.5q0 33.5 18 57.5t44 24t44.5 -24t18.5 -57.5t-18.5 -57t-44.5 -23.5t-44 23.5t-18 57zM629 545.5
q0 33.5 18.5 57.5t44.5 24t44.5 -24t18.5 -57.5t-18.5 -57t-44.5 -23.5t-44.5 23.5t-18.5 57zM503 52q184 0 279 169q34 62 44 118h-646q1 -6 3.5 -16.5t13.5 -40t25 -57t40.5 -60.5t58.5 -57t79.5 -40t102.5 -16z" />
    <glyph glyph-name="huati" unicode="&#xe645;" 
d="M900 549q9 0 15.5 6t6.5 14v20q0 8 -6.5 14t-15.5 6h-146l19 157q1 8 -3 15q-5 8 -15 9l-18 2q-1 1 -2 1q-8 0 -14 -6t-7 -14l-20 -164h-309l19 156q1 9 -3 16t-15 8l-19 3h-2q-8 0 -13.5 -5.5t-7.5 -14.5l-20 -163h-200q-9 0 -15.5 -6t-6.5 -14v-20q0 -8 6.5 -14
t15.5 -6h193l-38 -312h-155q-9 0 -15.5 -6t-6.5 -14v-19q0 -9 6.5 -15t15.5 -6h148l-21 -175q-2 -9 3 -16t15 -8l18 -2q1 -1 2 -1q8 0 14 6t7 14l22 182h309l-21 -174q-1 -10 4.5 -17t13.5 -8l19 -2h2q8 0 13.5 5.5t7.5 14.5l22 181h198q9 0 15.5 6t6.5 15v19q0 8 -6.5 14
t-15.5 6h-191l38 312h153zM650 237h-312l39 312h311z" />
    <glyph glyph-name="yanjing2" unicode="&#xe627;" 
d="M512 599q55 0 111.5 -20.5t96.5 -47t77.5 -61.5t53.5 -53t27 -33q-11 -15 -27 -33.5t-54 -53.5t-77.5 -61t-96 -46.5t-111.5 -20.5t-111.5 20.5t-96.5 47t-77.5 61.5t-53.5 53t-27 33q43 57 104 107q130 108 262 108zM512 667q-51 0 -102 -13.5t-91.5 -35.5t-77.5 -48.5
t-64.5 -52.5t-47.5 -48t-30.5 -35.5t-9.5 -13.5q-12 -15 -12 -36t12 -36q3 -5 10 -14t30 -34.5t48 -49t63.5 -52t78.5 -49t91 -34.5t102 -14q184 0 353 167q45 44 70 80q12 15 12 36t-12 36q-3 5 -10 14t-30 34.5t-48 49t-63.5 52t-78.5 49t-91 34.5t-102 14zM512 254
q-54 0 -92 38t-38 92t38 92t92 38t92 -38q36 -36 38 -86q0 -9 -5.5 -15.5t-14.5 -7t-15.5 5.5t-7.5 15q-1 34 -25 58q-26 25 -62 25t-61.5 -25.5t-25.5 -61.5t25.5 -61.5t61.5 -25.5t62 25q4 4 7 9q6 7 14.5 8t15.5 -4.5t8 -14.5t-4 -16q-5 -6 -11 -12q-38 -38 -92 -38v0z
" />
    <glyph glyph-name="iconfontjifen2" unicode="&#xe646;" 
d="M722 -128q-105 0 -179.5 38.5t-74.5 92.5v336q0 54 74.5 92t179.5 38t179.5 -38t74.5 -92v-336q0 -54 -74.5 -92.5t-179.5 -38.5zM722 413q-46 0 -86 -8.5t-63.5 -20.5t-37 -24t-13.5 -21t13.5 -21.5t37 -24.5t63 -20.5t86 -8.5t86.5 8.5t63.5 20.5t37 24.5t13.5 21.5
t-13.5 21t-37 24t-63.5 20.5t-86 8.5zM922 258q-77 -50 -200 -50t-200 50v-87q0 -9 13.5 -21.5t37 -24.5t63 -20.5t86 -8.5t86.5 8.5t63.5 20.5t37 24.5t13.5 21.5v87zM922 90q-77 -50 -200 -50t-200 50v-87q0 -9 13.5 -21.5t37 -24.5t63 -20.5t86 -8.5t86.5 8.5t63.5 20.5
t37 24.5t13.5 21.5v87zM722 574q-56 -35 -137 -55.5t-173.5 -20.5t-174 20.5t-136.5 55.5v-133q0 -11 12 -25t38.5 -30t62 -29t87.5 -21.5t110 -8.5q4 0 11 0.5t10 0.5v-86h-9h-12q-92 0 -173.5 20.5t-136.5 55.5v-133q0 -11 12 -25t38.5 -30t62 -29t87.5 -21.5t110 -8.5
q4 0 11 0.5t10 0.5v-35q0 -26 19 -50q-20 -1 -40 -1q-107 0 -198 26.5t-144 72.5t-53 100v512q0 54 53 100t144 72.5t198 26.5t198.5 -26.5t144.5 -72.5t53 -100v-200q-40 11 -85 14v63zM411.5 811q-58.5 0 -110.5 -8.5t-87.5 -22t-62 -29t-38.5 -29.5t-12 -25t12 -25
t38.5 -30t62 -29t87.5 -21.5t110.5 -8.5t110.5 8.5t87.5 21.5t61.5 29t38.5 30t12.5 25t-12.5 25t-38.5 29.5t-61.5 29t-87.5 22t-110.5 8.5z" />
    <glyph glyph-name="bArrows" unicode="&#xe603;" 
d="M514 139l-448 438l56 54l448 -437zM514 139l-56 55l447 437l56 -54z" />
    <glyph glyph-name="jiantou-copy" unicode="&#xe69e;" 
d="M338 358l297 -288q10 -11 25.5 -11t27.5 11q11 10 11 25t-11 26l-271 262l269 265q11 11 11 26t-10.5 25.5t-26 10.5t-27.5 -11l-298 -288q-10 -12 -9.5 -27.5t12.5 -25.5z" />
    <glyph glyph-name="saoyisao" unicode="&#xe623;" 
d="M93 564q-13 0 -21.5 9t-8.5 21v145q0 40 28 68.5t68 28.5h143q12 0 21 -9t9 -21.5t-9 -21.5t-21 -9h-143q-15 0 -25.5 -10.5t-10.5 -25.5v-145q0 -12 -9 -21t-21 -9v0zM936 564q-13 0 -21.5 9t-8.5 21v145q0 15 -11 25.5t-26 10.5h-142q-13 0 -21.5 9t-8.5 21.5t8.5 21.5
t21.5 9h142q40 0 68.5 -28.5t28.5 -68.5v-145q0 -12 -9 -21t-21 -9v0zM302 -68h-143q-40 0 -68 28.5t-28 68.5v145q0 12 8.5 21t21 9t21.5 -9t9 -21v-145q0 -15 10.5 -25.5t25.5 -10.5h143q12 0 21 -9t9 -21.5t-9 -21.5t-21 -9v0zM869 -68h-142q-13 0 -21.5 9t-8.5 21.5
t8.5 21.5t21.5 9h142q15 0 26 10.5t11 25.5v145q0 12 8.5 21t21 9t21.5 -9t9 -21v-145q0 -40 -28.5 -68.5t-68.5 -28.5v0zM936 354h-843q-13 0 -21.5 9t-8.5 21t8.5 21t21.5 9h843q12 0 21 -9t9 -21t-9 -21t-21 -9v0z" />
    <glyph glyph-name="tuwen20" unicode="&#xe753;" 
d="M102 742v-716h820v716h-820zM870 77h-716v614h716v-614zM333 512zM256 512q0 32 22.5 54.5t54.5 22.5t54.5 -22.5t22.5 -54.5t-22.5 -54.5t-54.5 -22.5t-54.5 22.5t-22.5 54.5zM512 538h256v-52h-256v52zM256 384h512v-51h-512v51zM256 230h512v-51h-512v51z" />
    <glyph glyph-name="tuwen-outline" unicode="&#xe608;" 
d="M883 32h-710v678h710v-678zM205 64h646v614h-646v-614zM538 301h-282v333h282v-333zM288 333h218v269h-218v-269zM781 531h-224v103h230v-103h-6zM589 563h166v39h-166v-39zM781 422h-224v103h230v-103h-6zM589 454h166v39h-166v-39zM781 301h-224v102h230v-102h-6z
M589 333h166v38h-166v-38zM781 115h-525v128h525v-128zM288 147h461v64h-461v-64z" />
    <glyph glyph-name="jiantou" unicode="&#xe659;" 
d="M723 340q19 0 32 14q13 13 12.5 31.5t-13.5 31.5l-422 402q-13 12 -31.5 12t-31.5 -13.5t-12.5 -32t13.5 -31.5l422 -402q13 -12 31 -12zM300 -63q18 0 31 12l423 400q14 12 14.5 30.5t-12 32t-31 14t-32.5 -12.5l-423 -399q-14 -13 -14.5 -31.5t12.5 -31.5
q13 -14 32 -14z" />
    <glyph glyph-name="gengduo" unicode="&#xe635;" 
d="M119 380zM47 380q0 30 21 51t51 21t51.5 -21t21.5 -51t-21.5 -51.5t-51.5 -21.5t-51 21.5t-21 51.5zM508 380zM435 380q0 30 21.5 51t51.5 21t51 -21t21 -51t-21 -51.5t-51 -21.5t-51.5 21.5t-21.5 51.5zM892 380zM819 380q0 30 21.5 51t51.5 21t51 -21t21 -51t-21 -51.5
t-51 -21.5t-51.5 21.5t-21.5 51.5z" />
    <glyph glyph-name="wenhao1" unicode="&#xe6c4;" 
d="M512 896q-104 0 -199 -40.5t-163.5 -109t-109 -163.5t-40.5 -199t40.5 -199t109 -163.5t163.5 -109t199 -40.5t199 40.5t163.5 109t109 163.5t40.5 199t-40.5 199t-109 163.5t-163.5 109t-199 40.5zM830.5 65.5q-62.5 -62.5 -143.5 -96.5q-83 -36 -175 -36t-175 36
q-81 34 -143.5 96.5t-96.5 143.5q-36 83 -36 175t36 175q34 81 96.5 143.5t143.5 96.5q83 36 175 36t175 -36q81 -34 143.5 -96.5t96.5 -143.5q36 -83 36 -175t-36 -175q-34 -81 -96.5 -143.5zM508.5 679q-76.5 0 -131 -54t-54.5 -131q0 -13 9 -22t22 -9t22 9t9 22
q0 51 36 87.5t87 36.5t87.5 -36.5t36.5 -87.5t-36.5 -87t-87.5 -36q-12 0 -21 -9t-9 -22v-118q0 -12 9 -21t21.5 -9t21.5 9t9 21v90q66 11 110 62.5t44 119.5q0 77 -54 131t-130.5 54zM508.5 151q-12.5 0 -21.5 -9t-9 -22v-45q0 -13 9 -22t21.5 -9t21.5 9t9 22v45
q0 13 -9 22t-21.5 9z" />
    <glyph glyph-name="zhibo" unicode="&#xe6c1;" 
d="M512 626q-69 0 -118 -50.5t-49 -121.5t49 -121.5t118 -50.5t118 50.5t49 121.5t-49 121.5t-118 50.5zM512 337q-49 0 -84 35t-35 84t35 84t84 35t84 -35t35 -84t-35 -84t-84 -35zM921 -86q-52 45 -127 83.5t-127 47.5q0 1 5.5 1h6.5q77 34 136 95t92 141q33 82 33 172
t-33 172q-33 79 -92 140.5t-136 94.5q-80 35 -167 35t-167 -35q-77 -33 -136 -94.5t-92 -140.5q-33 -82 -33 -172t33 -172q33 -80 92 -141q57 -59 143 -96l0.5 -0.5l0.5 -0.5q-131 -30 -242 -123q-27 -23 -12 -42q3 -3 6.5 -4.5t6.5 -1.5h5t5.5 2.5t5 3.5t6 5t5.5 5
q70 66 168.5 98t203.5 32q215 0 375 -136q22 -19 39 -4q9 6 8 16t-12 19zM511.5 63q-77.5 0 -147.5 31q-69 29 -121.5 83.5t-81.5 125.5q-30 73 -30 153t30 152q29 71 81.5 125.5t121.5 84.5q70 30 147.5 30t148.5 -30q68 -30 121 -84.5t82 -125.5q30 -72 30 -152t-30 -153
q-29 -71 -82 -125.5t-121 -83.5q-71 -31 -148.5 -31z" />
    <glyph glyph-name="xiaolian1" unicode="&#xe67c;" horiz-adv-x="1026" 
d="M507 46q-58 0 -109.5 20.5t-82.5 46.5t-56.5 57.5t-34 47t-12.5 23.5l70 31q2 -6 8.5 -18t26 -36t43.5 -43.5t63.5 -35t83.5 -15.5q47 1 88.5 17t65.5 34t45.5 44.5t26 34.5t9.5 18l69 -30q-3 -8 -6.5 -14t-17.5 -28t-29 -39t-41 -40t-54 -38t-68.5 -26t-83.5 -11h-4z
M512 -128q-104 0 -198.5 40.5t-163.5 109.5t-109.5 163.5t-40.5 198.5t40.5 198.5t109.5 163.5t163.5 109.5t198.5 40.5t198.5 -40.5t163.5 -109.5t109.5 -163.5t40.5 -198.5t-40.5 -198.5t-109.5 -163.5t-163.5 -109.5t-198.5 -40.5zM512 820q-89 0 -169.5 -34.5t-139 -93
t-93 -139t-34.5 -169.5t34.5 -169.5t93 -139t139 -93t169.5 -34.5t169.5 34.5t139 93t93 139t34.5 169.5t-34.5 169.5t-93 139t-139 93t-169.5 34.5zM304 473q0 -24 17.5 -41.5t41.5 -17.5t41.5 17.5t17.5 41.5t-17 41.5t-41.5 17.5t-42 -17.5t-17.5 -41.5zM601 473
q0 -24 17 -41.5t41 -17.5q25 0 42 17.5t17 41.5t-17 41.5t-41.5 17.5t-41.5 -17.5t-17 -41.5z" />
    <glyph glyph-name="gouwu" unicode="&#xe60e;" 
d="M842 511l-130 82q-12 8 -20.5 23.5t-8.5 29.5v0q0 1 1 6h-487q-37 0 -67 -26t-34 -63l-78 -602q-5 -37 18 -63t60 -26h739q37 0 60 26t18 63zM638 593v0q10 0 17.5 -7t7.5 -17.5t-7.5 -17.5t-17.5 -7v0q-10 0 -17 7t-7 17.5t7 17.5t17 7zM305 593v0q11 0 18 -7t7 -17.5
t-7 -17.5t-18 -7v0q-10 0 -17 7t-7 17.5t7 17.5t17 7zM661 271l-76 -72q-5 -4 -5 -14v-1l19 -103q1 -3 1 -6v0q0 -8 -6 -15t-15 -7h-1q-7 0 -13 4l-92 49q-3 1 -7 1v0h-1q-4 0 -7 -1l-92 -49q-6 -4 -13 -4h-1q-9 0 -15 7t-6 15v0q0 3 1 6l19 103v1v0q0 10 -5 14l-76 72
q-8 8 -8 18t8 16q6 5 13 5l104 14q4 1 7 3.5t5 6.5l45 93q3 6 8 10q6 5 13.5 5t13.5 -5q5 -4 7 -10l46 -93q2 -4 5 -6q4 -3 7 -4l104 -14q8 -1 13 -5q9 -6 8 -16q0 -10 -8 -18zM986 624l-181 115q-11 7 -24 7q-10 0 -21 -6t-17 -15l-11 -17q-26 18 -51 18q-16 0 -31 -8
q-11 65 -51 112q-55 66 -134 66q-78 0 -133 -66q-54 -64 -54 -154h36q0 77 45 131q45 53 106.5 53t106.5 -53q45 -54 45 -131h36q0 11 -1 22q13 10 29 10v0q20 0 42 -15l-15 -23q-7 -11 -7 -24q0 -10 6 -21t15 -17l181 -115q11 -6 24 -6q10 0 21 6t16 14l36 55q7 11 7 24
q0 11 -6.5 22t-14.5 16zM765 691q7 0 11.5 -4.5t4.5 -11t-4.5 -11t-11.5 -4.5v0q-6 0 -11 4.5t-5 11t5 11t11 4.5v0z" />
    <glyph glyph-name="yuanquan" unicode="&#xe662;" 
d="M498 -98q-99 0 -189.5 39t-156 104.5t-104.5 156t-39 189.5t39 189.5t104.5 156t156 104.5t189.5 39t190 -39t156 -104.5t104 -156t39 -189.5t-39 -189.5t-104 -156t-156 -104.5t-190 -39zM498 833q-90 0 -172 -35t-141 -94t-94 -141t-35 -172t35 -172t94 -141t141 -94
t172 -35t172 35t141 94t94 141t35 172t-35 172t-94 141t-141 94t-172 35z" />
    <glyph glyph-name="renwu1" unicode="&#xe783;" 
d="M317 552h388q14 0 24 8t10 21.5t-10 22t-24 8.5h-388q-14 0 -24 -8.5t-10 -22t10 -21.5t24 -8zM392 782h242h8h7.5t6.5 0.5t7 1t5.5 1.5t5 2t4 3.5t3.5 5t1.5 6t0.5 8.5q0 11 -3 17.5t-12 9t-15 3t-20 0.5h-241q-14 0 -20.5 -0.5t-15 -3t-11.5 -9t-3 -17.5
q0 -13 6.5 -19.5t14 -7.5t22.5 -1h7zM704 271h-387q-14 0 -24 -8t-10 -21t10 -21t24 -8h388q14 0 24 8t10 21q-1 14 -11 21.5t-24 7.5zM777 838h-11q-28 0 -28 -29q0 -28 28 -28h19q30 0 48 -18t18 -47v-662q0 -29 -18 -47t-48 -18h-530q-31 0 -56.5 18.5t-25.5 46.5v662
q0 29 18 47t47 18h23q26 0 26 30q0 27 -26 27h-16q-66 0 -98.5 -33.5t-32.5 -91.5v-652q0 -61 36 -97t102 -36h518q138 0 138 133v652q0 57 -34.5 91t-96.5 34zM704 441h-387q-14 0 -24 -8.5t-10 -22t10 -21.5t24 -8h388q14 0 24 8t10 21q-1 14 -11 22.5t-24 8.5z" />
    <glyph glyph-name="xiaolian2" unicode="&#xe609;" 
d="M510.5 834q-91.5 0 -174.5 -35.5t-143 -95.5t-95.5 -143t-35.5 -174.5t35.5 -174.5t95.5 -143t143 -95.5t174.5 -35.5t174.5 35.5t143 95.5t95.5 143t35.5 174.5t-35.5 174.5t-95.5 143t-143 95.5t-174.5 35.5zM510.5 21q-98.5 0 -182.5 49t-133 133t-49 182.5t49 182.5
t133 133t182.5 49t182.5 -49t133 -133t49 -182.5t-49 -182.5t-133 -133t-182.5 -49zM346.5 544q-17.5 0 -29.5 -12.5t-12 -29.5v-41q0 -18 12 -30t29.5 -12t30 12t12.5 30v41q0 17 -12.5 29.5t-30 12.5zM674.5 544q-17.5 0 -30 -12.5t-12.5 -29.5v-41q0 -18 12.5 -30t30 -12
t29.5 12t12 30v41q0 17 -12 29.5t-29.5 12.5zM613.5 354q-14.5 9 -31.5 5.5t-26 -18.5q-2 -2 -6 -7t-16 -12t-24 -7q-27 0 -45 26q-9 15 -26 18.5t-31.5 -5.5t-18.5 -26t5 -31q15 -24 45.5 -45t70.5 -21t70.5 20.5t45.5 44.5q10 15 6 32t-18.5 26z" />
    <glyph glyph-name="yanjing3" unicode="&#xe62d;" 
d="M512.5 654q142.5 0 260 -76t176.5 -200h76q-63 154 -202 249.5t-310.5 95.5t-311 -95.5t-201.5 -249.5h76q59 124 176.5 200t260 76zM512.5 101q-142.5 0 -260 76t-176.5 201h-76q62 -154 201.5 -250t311 -96t310.5 96t202 250h-76q-59 -125 -176.5 -201t-260 -76z
M328 377.5q0 -76.5 54 -130.5t130.5 -54t130.5 54t54 130.5t-54 130.5t-130.5 54t-130.5 -54t-54 -130.5zM628 377.5q0 -47.5 -34 -81t-81.5 -33.5t-81.5 33.5t-34 81t34 81.5t81.5 34t81.5 -34t34 -81.5z" />
    <glyph glyph-name="yuanquan1" unicode="&#xe506;" 
d="M512 896q-104 0 -199 -40.5t-163.5 -109t-109 -163.5t-40.5 -199t40.5 -199t109 -163.5t163.5 -109t199 -40.5q139 0 257 68.5t186.5 186.5t68.5 257t-68.5 257t-186.5 186.5t-257 68.5zM512 -77q-94 0 -179 36.5t-147 98.5t-98.5 147t-36.5 179t36.5 179t98.5 147
t147 98.5t179 36.5t179 -36.5t147 -98.5t98.5 -147t36.5 -179t-36.5 -179t-98.5 -147t-147 -98.5t-179 -36.5z" />
    <glyph glyph-name="shipin" unicode="&#xe60a;" 
d="M934 42h-844q-10 0 -17 7t-7 17v636q0 10 7 17t17 7h844q10 0 17 -7t7 -17v-636q0 -10 -7 -17t-17 -7zM114 90h796v588h-796v-588zM215 42q-10 0 -17 7t-7 17v636q0 10 7 17t17 7t17 -7t7 -17v-636q0 -10 -7 -17t-17 -7zM801.5 42q-9.5 0 -16.5 7t-7 17v636q0 10 7 17
t16.5 7t16.5 -7t7 -17v-636q0 -10 -7 -17t-16.5 -7zM215 566h-125q-10 0 -17 7t-7 17t7 17t17 7h125q10 0 17 -7t7 -17t-7 -17t-17 -7zM215 463h-125q-10 0 -17 7t-7 17t7 17t17 7h125q10 0 17 -7t7 -17t-7 -17t-17 -7zM215 360h-125q-10 0 -17 7t-7 17t7 17t17 7h125
q10 0 17 -7t7 -17t-7 -17t-17 -7zM215 257h-125q-10 0 -17 7t-7 17t7 17t17 7h125q10 0 17 -7t7 -17t-7 -17t-17 -7zM215 154h-125q-10 0 -17 7t-7 17t7 17t17 7h125q10 0 17 -7t7 -17t-7 -17t-17 -7zM934 566h-125q-10 0 -17 7t-7 17t7 17t17 7h125q10 0 17 -7t7 -17
t-7 -17t-17 -7zM934 463h-125q-10 0 -17 7t-7 17t7 17t17 7h125q10 0 17 -7t7 -17t-7 -17t-17 -7zM934 360h-125q-10 0 -17 7t-7 17t7 17t17 7h125q10 0 17 -7t7 -17t-7 -17t-17 -7zM934 257h-125q-10 0 -17 7t-7 17t7 17t17 7h125q10 0 17 -7t7 -17t-7 -17t-17 -7zM934 154
h-125q-10 0 -17 7t-7 17t7 17t17 7h125q10 0 17 -7t7 -17t-7 -17t-17 -7zM410 207v0q-10 0 -17 7t-7 17v0v322q0 10 7 17t17 7q8 0 14 -4l240 -167q11 -7 11 -20t-11 -20l-241 -155q-6 -4 -13 -4v0zM434 507v-232l174 112z" />
    <glyph glyph-name="xiaolian3" unicode="&#xe611;" 
d="M512 896q-139 0 -257 -68.5t-186.5 -186.5t-68.5 -257t68.5 -257t186.5 -186.5t257 -68.5t257 68.5t186.5 186.5t68.5 257t-68.5 257t-186.5 186.5t-257 68.5zM512 -101q-99 0 -188.5 38.5t-154.5 103.5t-103.5 154.5t-38.5 188.5t38.5 188.5t103.5 154.5t154.5 103.5
t188.5 38.5t188.5 -38.5t154.5 -103.5t103.5 -154.5t38.5 -188.5t-38.5 -188.5t-103.5 -154.5t-154.5 -103.5t-188.5 -38.5zM362 466q0 -11 -8 -18.5t-18 -7.5q-11 0 -18.5 7.5t-7.5 18.5v79q0 10 7.5 17.5t18.5 7.5q10 0 18 -7.5t8 -17.5v-79zM701 467q0 -11 -8 -19t-19 -8
t-18.5 8t-7.5 19v77q0 11 7.5 18.5t18.5 7.5t19 -7.5t8 -18.5v-77zM268 268q0 2 0.5 4t2 6.5t4.5 7t8.5 1t12.5 -9.5q2 -5 6.5 -14t19.5 -32.5t33.5 -42t49.5 -34.5t67 -18q4 -1 11 -1.5t28.5 -0.5t42.5 3t48 12.5t49 24t43 41t32 61.5q1 1 2.5 3t5 5.5t7 4.5t7.5 -2.5
t7 -12.5l-2 -10l-8 -24l-17 -34l-29 -36l-43 -35l-62 -24l-83 -10h-32q-55 2 -111 38q-70 45 -100 129v0z" />
    <glyph glyph-name="wujiaoxing" unicode="&#xe51a;" 
d="M823 -86l-314 166l-313 -166l60 351l-259 250l350 50l159 321l158 -321l351 -50l-256 -250zM61 491l222 -216l-50 -307l276 145l277 -145l-54 307l222 216l-306 44l-139 280l-138 -280l-310 -44v0z" />
    <glyph glyph-name="ziyuan" unicode="&#xe64b;" 
d="M998 358h-972q-11 0 -18.5 7.5t-7.5 18.5t7.5 18.5t18.5 7.5h972q11 0 18.5 -7.5t7.5 -18.5t-7.5 -18.5t-18.5 -7.5zM486 -128v0q-10 0 -17.5 7.5t-7.5 18.5v972q0 11 7.5 18.5t18 7.5t18 -7.5t7.5 -18.5v-972q0 -11 -7.5 -18.5t-18.5 -7.5z" />
    <glyph glyph-name="rli" unicode="&#xe685;" 
d="M791 -58h-567q-54 0 -92.5 38.5t-38.5 92.5v2v518q2 56 43 97t97 43h46v-46h-46q-36 -3 -63.5 -30t-29.5 -64v-139h744v139q0 54 -20.5 74t-72.5 20h-46v46h46h10q54 0 92 -38t38 -92v-10v-512v-8q0 -54 -38.5 -92.5t-92.5 -38.5h-9zM884 407h-744v-326q4 -34 31.5 -61
t61.5 -32h558h2q38 0 64.5 27t26.5 65v1v326zM675 594q-10 5 -17 16.5t-7 23.5q0 5 1 9v133q-1 5 -1 10q0 11 7 23t17 17q10 -5 17 -17t7 -23q0 -5 -1 -10v-133q1 -4 1 -9q0 -11 -7 -23t-17 -17zM419 733h186v-46h-186v46zM349 593q-10 6 -17 17.5t-7 22.5q0 5 1 10v133
q-1 5 -1 10q0 11 7 23t17 17q10 -5 17 -17t7 -23q0 -5 -1 -10v-133q1 -4 1 -9q0 -11 -7 -23t-17 -17v-1z" />
    <glyph glyph-name="rli1" unicode="&#xe687;" 
d="M890 -128h-765q-52 0 -88.5 37t-36.5 89v1v674q2 55 40.5 93.5t92.5 40.5h90v-45h-89q-36 -2 -61.5 -27.5t-27.5 -61.5v-133h934v133q0 52 -20 70.5t-69 18.5h-89v45h89h9q52 0 88.5 -36.5t36.5 -87.5v-10v-667v-8q0 -52 -37 -89t-89 -37h-8v0zM979 495h-934v-489
q4 -35 29 -60t60 -29h756h2q36 0 61.5 25.5t25.5 61.5v2v489zM779 95v0q-9 0 -15.5 6.5t-6.5 15.5t6.5 15.5t15.5 6.5t15.5 -6.5t6.5 -15.5t-6.5 -15.5t-15.5 -6.5zM779 273v0q-9 0 -15.5 6.5t-6.5 15.5t6.5 15.5t15.5 6.5t15.5 -6.5t6.5 -15.5t-6.5 -15.5t-15.5 -6.5z
M601 95v0q-9 0 -15.5 6.5t-6.5 15.5t6.5 15.5t15.5 6.5t15.5 -6.5t6.5 -15.5t-6.5 -15.5t-15.5 -6.5zM601 273v0q-9 0 -15.5 6.5t-6.5 15.5t6.5 15.5t15.5 6.5t15.5 -6.5t6.5 -15.5t-6.5 -15.5t-15.5 -6.5zM423 95q-9 0 -15.5 6.5t-6.5 15.5t6.5 15.5t15.5 6.5t15.5 -6.5
t6.5 -15.5v0q0 -9 -6.5 -15.5t-15.5 -6.5zM423 273q-9 0 -15.5 6.5t-6.5 15.5t6.5 15.5t15.5 6.5t15.5 -6.5t6.5 -15.5v0q0 -9 -6.5 -15.5t-15.5 -6.5zM245 95q-9 0 -15.5 6.5t-6.5 15.5t6.5 15.5t15.5 6.5t15.5 -6.5t6.5 -15.5v0q0 -9 -6.5 -15.5t-15.5 -6.5zM245 273
q-9 0 -15.5 6.5t-6.5 15.5t6.5 15.5t15.5 6.5t15.5 -6.5t6.5 -15.5v0q0 -9 -6.5 -15.5t-15.5 -6.5zM734 674q-23 12 -23 38q0 5 1 10v126q-7 8 -7 19q0 12 8.5 20.5t20.5 8.5t20.5 -8.5t8.5 -20.5q0 -11 -7 -19v-127q1 -4 1 -9q0 -26 -23 -38v0zM356 807h312v-45h-312v45z
M289 673q-23 13 -23 39q0 5 1 9v127q-7 8 -7 19q0 12 8.5 20.5t20.5 8.5t20.5 -8.5t8.5 -20.5q0 -11 -7 -19v-127q1 -4 1 -9q0 -26 -23 -38v-1z" />
    <glyph glyph-name="wuxing" unicode="&#xe684;" 
d="M512 721l112 -204l7 -11l13 -3l228 -44l-159 -169l-9 -10l2 -13l28 -231l-210 99l-12 5l-12 -5l-211 -99l29 231l2 13l-9 10l-159 169l228 44l13 3l7 11zM512 780l-137 -249l-279 -54l194 -207l-35 -282l257 121l257 -121l-35 282l194 207l-279 54z" />
    <glyph glyph-name="MV" unicode="&#xe6af;" 
d="M878 652h-732q-41 0 -69.5 -29t-28.5 -69v-341q0 -41 29 -69.5t69 -28.5h732q41 0 69.5 28.5t28.5 69.5v341q0 40 -29 69t-69 29zM927 213q0 -21 -14.5 -35t-34.5 -14h-732q-20 0 -34.5 14t-14.5 35v341q0 20 14.5 34.5t34.5 14.5h732q20 0 34.5 -14.5t14.5 -34.5v-341z
M438 519h47v-266h-47v179l-80 -104l-79 104v-179h-47v266h47l80 -107zM658 320l85 198h52l-118 -265h-38l-118 265h53z" />
    <glyph glyph-name="wujiaoxing1" unicode="&#xe505;" 
d="M823 -86l-314 166l-313 -166l60 351l-259 250l350 50l159 321l158 -321l351 -50l-256 -250zM61 491l222 -216l-50 -307l276 145l277 -145l-54 307l222 216l-306 44l-139 280l-138 -280l-310 -44v0z" />
    <glyph glyph-name="icon-tuwen" unicode="&#xe757;" 
d="M116 244q10 0 17 7t7 16.5t-7 16.5t-17 7h-69v558h744v-69q0 -10 7 -17t17 -7v0q9 0 16 7t7 16v1v69v1q0 19 -13.5 32.5t-33.5 13.5h-744q-20 0 -33.5 -13.5t-13.5 -33.5v-744q0 -20 13.5 -33.5t33.5 -13.5h69q10 0 17 7t7 16.5t-7 16.5t-17 7h-69v139h69v0zM977 710
h-744v0q-19 0 -33 -13.5t-14 -33.5v-744q0 -20 13.5 -33.5t33.5 -13.5h745q19 0 32.5 13.5t13.5 33.5v0v744v0q0 19 -13.5 33t-33.5 14zM977 112l-133 105l-156 -103l-274 233l-181 -194v510h745v-551h-1z" />
    <glyph glyph-name="jifen2" unicode="&#xe64e;" 
d="M515 -46v228q-39 -2 -78 -2q-150 0 -267.5 37.5t-165.5 98.5v-265q0 -48 59 -89t159 -65.5t215 -24.5q69 0 138 10q-60 32 -60 72zM437.5 513q-150.5 0 -268 37.5t-165.5 98.5v-265h2q7 -44 67.5 -84t158 -64.5t205.5 -24.5q37 0 78 3v133q0 19 15 37q28 35 99 56.5
t160 21.5q41 0 81 -5v192q-47 -61 -164.5 -98.5t-268 -37.5zM437 892q-114 0 -212.5 -24t-156.5 -64t-58 -86.5t58 -86.5t156.5 -63.5t212.5 -23.5t213 23.5t157 63.5t58 86.5t-58 86.5t-157 64t-213 24zM890 42q-2 0 -11 -1l-10 -2q-39 -5 -79 -5q-76 0 -138.5 17t-96.5 45
v-124q0 -21 26.5 -41.5t72.5 -33.5q22 -6 44 -10q44 -7 92 -7q100 0 167 28.5t67 63.5v124q-46 -38 -134 -54zM891 226q-1 -1 -10 -2q-6 -1 -11 -2q-40 -5 -80 -5q-36 0 -72 4q-18 2 -36 6q-16 3 -32 7q-63 18 -95 49v-138q11 -32 77 -56t158 -24q41 0 80 6q10 1 11 1
q2 1 5.5 1.5t4.5 0.5q54 10 89.5 29.5t43.5 41.5v138q-42 -41 -133 -57zM891 413q-8 2 -10 2q-3 1 -11 2q-39 6 -80 6q-117 0 -187 -39q-43 -23 -43 -48.5t42.5 -49t111.5 -33.5q16 -2 34 -4q16 -1 34 -1h3.5h4.5q41 0 80 6q2 0 5.5 0.5t5 1t3.5 0.5t4 0.5t3 0.5
q58 12 93 34t35 44.5t-35 44.5t-93 33z" />
    <glyph glyph-name="button-top" unicode="&#xe60d;" 
d="M0 132l508 518l507 -518l-39 -41l-468 478l-469 -478z" />
    <glyph glyph-name="saoyisao1" unicode="&#xe612;" horiz-adv-x="1143" 
d="M63 -79q-26 32 -29.5 99.5t15.5 125t51 62.5q33 7 43 -15t10 -99q0 -33 0.5 -50.5t4.5 -34t8.5 -22.5t16 -11.5t24 -6t36.5 -0.5q80 0 133 -18.5t53 -46.5q0 -22 -83 -27t-173.5 8t-109.5 36zM674 -96q0 30 55 47.5t147 17.5q29 0 43 0.5t28.5 5.5t19 10t9 22t4.5 33.5
v51.5q0 76 11.5 99t50.5 23t50 -24t11 -108q0 -54 -11 -103.5t-26 -64.5q-20 -20 -117 -30.5t-186 -4.5t-89 25zM8 375q7 21 133.5 31.5t435.5 15.5q181 1 290.5 2t168.5 -4t78.5 -13t19.5 -24q0 -10 -7.5 -17t-32.5 -12.5t-61 -8.5t-104 -5t-151.5 -2.5t-213.5 -0.5
q-113 0 -195.5 0.5t-147 2.5t-105.5 4.5t-66.5 7t-35 10t-6.5 13.5v0zM52 540q-24 24 -20 131.5t30 157.5q19 36 59.5 47.5t142.5 11.5q128 0 156 -29q20 -20 -28 -38q-39 -14 -109 -19q-28 -2 -41.5 -3t-30.5 -4.5t-23.5 -6t-15.5 -11.5t-11 -15t-6 -23t-5 -30.5t-3 -41.5
q-9 -120 -50 -140q-21 -11 -45 13v0zM1002 540q-9 9 -15.5 49.5t-6.5 89.5v117h-153q-87 0 -120 10t-33 36q0 30 88 43t186 1.5t122 -42.5q42 -50 30 -165q-10 -98 -46 -137q-26 -28 -53 -2h1zM82 -102q-9 8 -15 57.5t-6 110.5q0 81 10 114.5t34 33.5q45 0 54 -130
q2 -30 3 -43.5t5 -31.5t6 -24t11.5 -15.5t15.5 -11.5t24 -6t31.5 -5t43.5 -3q53 -4 91.5 -15t38.5 -23q0 -15 -80 -23.5t-166 -4.5t-101 20zM674 -94q0 12 46.5 23.5t112.5 14.5l159 10l2 122q1 95 36 122q25 20 46 -18q16 -28 21 -79q7 -69 -0.5 -110.5t-36 -67.5t-76 -36
t-127.5 -10q-76 0 -129.5 8.5t-53.5 20.5v0zM8 375q7 22 129 30t429.5 8t430 -8t129.5 -30q3 -8 -6.5 -13.5t-35.5 -10t-67 -7t-106 -4.5t-148 -2.5t-196.5 -0.5t-196.5 0.5t-147.5 2.5t-105.5 4.5t-67 7t-35.5 10t-6.5 13.5zM67 694l10 179h160q131 0 162 -27
q20 -17 -29 -31q-31 -9 -85 -13q-29 -2 -42.5 -3t-31 -4.5t-23.5 -6t-15.5 -11.5t-11.5 -15t-6 -23t-5 -30.5t-3 -41.5q-4 -52 -18.5 -93t-30.5 -47q-23 -7 -30 30q-6 35 -1 137zM1001 540q-8 9 -14.5 49t-6.5 88v116l-143 9q-135 9 -157 39q-14 19 31 32q50 15 143 15
q117 0 157.5 -11.5t61.5 -50.5q40 -74 23 -184q-13 -88 -48 -111q-23 -14 -47 9zM82 -102q-9 8 -15 58t-6 113q0 90 18.5 125.5t40 -1.5t27.5 -127q7 -95 23.5 -111.5t105.5 -16.5q49 0 89.5 -9t48.5 -21q6 -11 -30 -19q-79 -18 -206 -11q-81 4 -96 20zM674 -95
q0 12 47.5 24t113.5 15l161 10l2 120q1 51 12.5 89.5t27.5 44.5q21 7 27 -27q7 -34 1 -125l-9 -164l-191 -9q-85 -4 -138.5 2t-53.5 20zM8 375q7 22 129 30t429.5 8t430 -8t129.5 -30q3 -8 -6.5 -13.5t-35.5 -10t-67 -7t-106 -4.5t-148 -2.5t-196.5 -0.5t-196.5 0.5
t-147.5 2.5t-105.5 4.5t-67 7t-35.5 10t-6.5 13.5zM61 667q0 72 9 114.5t35 67.5t66.5 31.5t109.5 1.5q50 -3 82.5 -11.5t41 -18.5t-0.5 -20.5t-42.5 -20t-83.5 -15.5q-31 -3 -45.5 -4.5t-33 -6t-25 -7t-15.5 -11.5t-10.5 -14.5t-5 -22.5t-3.5 -29.5v-39.5
q-1 -50 -12.5 -88.5t-27.5 -44.5q-22 -7 -31 30q-8 33 -8 109v0zM1008 559q-3 40 -7 130q-2 25 -3.5 37.5t-8.5 25.5t-14.5 18t-28 11t-42 8.5t-61.5 6.5q-134 14 -142 40q-5 18 56 28q48 9 124 9h176l9 -176q4 -82 -2 -129t-21 -47q-13 0 -23.5 11t-11.5 27zM82 -102
q-15 15 -19.5 93t4 150.5t23.5 72.5q12 0 23.5 -38t14.5 -92q3 -30 3.5 -43.5t4.5 -31.5t6 -24t11.5 -15.5t15.5 -11.5t24.5 -6t31.5 -5t43 -3q54 -4 92 -15t38 -23q0 -15 -72 -23.5t-150.5 -4t-93.5 19.5zM689 -96q13 13 62.5 24.5t106.5 15.5l138 10l9 130q4 54 16 92
t24 38q13 0 19 -45.5t2 -115.5l-9 -161l-199 -9q-192 -7 -169 21zM16 367q-8 13 -2 27t23 20q23 9 141.5 11.5t273.5 -0.5t307 -9t255.5 -15t103.5 -18q0 -20 -270 -32.5t-545 -8t-287 24.5zM61 668q0 60 11 114t26 69q26 26 99.5 35t137 -3t63.5 -39q0 -44 -130 -54
q-30 -2 -43 -2.5t-31.5 -5t-24.5 -6t-15.5 -11t-11.5 -15.5t-6 -24.5t-4.5 -31.5t-3.5 -43q-8 -118 -33 -127q-11 -3 -19 19q-15 39 -15 125zM1011 657v136l-161 9q-66 4 -113.5 16t-47.5 24q0 22 74 33t157.5 6t108.5 -25q24 -20 36 -103t6 -157.5t-29 -74.5q-13 0 -22 40
t-9 96zM80 -74q-14 36 -17.5 106t4.5 126t23 56q12 0 23.5 -38t14.5 -92q3 -30 3.5 -43.5t4.5 -31.5t6 -24t11.5 -15.5t15.5 -11.5t24.5 -6t31.5 -5t43 -3q114 -8 126 -32q6 -12 -20 -21q-40 -14 -126 -14q-81 0 -119.5 11t-48.5 38zM705 -95q0 12 42.5 24t102.5 15l146 10
l9 130q4 54 16 92t24 38q13 0 19 -45.5t2 -115.5l-9 -161l-176 -9q-77 -4 -126.5 2t-49.5 20zM31 367q0 31 553 31t534 -31q-8 -14 -159.5 -22t-393.5 -8q-252 0 -393 8t-141 22zM61 683q0 64 8.5 102t33 62t63 32.5t103.5 8.5q107 0 122 -28q12 -21 -38 -39
q-39 -14 -103 -19q-95 -7 -111 -23.5t-16 -106.5q0 -50 -9 -85.5t-22 -35.5t-22 39t-9 93zM1011 672v121l-161 9q-66 4 -113.5 16t-47.5 24q0 22 74 33t157.5 6t108.5 -25q23 -20 35.5 -95t6 -142.5t-28.5 -67.5q-13 0 -22 35.5t-9 85.5zM98 -86q-21 21 -31 95t-3 139.5
t28 65.5q13 0 22 -40.5t9 -97.5v-138h137q57 0 97.5 -9t40.5 -21q0 -21 -65.5 -28t-139.5 3t-95 31zM705 -92q0 12 45 21t108 9h153v138q0 57 9 97.5t22 40.5q20 0 27 -65.5t-2.5 -139.5t-30.5 -95t-103 -31t-155 -3t-73 28zM31 367.5q0 14.5 141.5 22.5t394.5 8t394.5 -8
t141.5 -22.5t-141.5 -22.5t-394.5 -8t-394.5 8t-141.5 22.5zM61 688q0 115 45 157.5t166 42.5q95 0 106 -25q7 -14 -27 -27q-30 -11 -82 -15q-30 -2 -43.5 -3t-32 -5t-24.5 -5.5t-15.5 -11.5t-11 -15.5t-6 -24t-5 -32t-3.5 -43.5q-8 -114 -33 -126q-12 -5 -21 21
q-13 37 -13 112zM1005 681l-9 131l-147 9q-109 7 -124 33q-8 14 23 24q34 10 98 10q133 0 179.5 -41.5t46.5 -158.5q0 -115 -24 -132q-14 -9 -26 27q-12 34 -17 98zM115 -90q-28 16 -44.5 83.5t-11 128.5t32.5 61q13 0 22 -36t9 -86v-123h137q57 0 97.5 -9t40.5 -21
q0 -19 -56 -26t-125 1t-102 27zM705 -92q0 12 45 21t108 9h153v123q0 50 9 86t21.5 36t21.5 -35.5t9 -85.5q0 -67 -13 -101.5t-46 -51.5q-36 -20 -111.5 -27.5t-136 -0.5t-60.5 27zM282 390q266 10 551 0q76 -3 69 -5q-17 -5 -335 -5q-372 0 -344 6q7 2 59 4v0zM61 656
q0 49 2 78.5t10 54t19.5 36t35.5 19.5t52.5 9t75.5 0l158 -5l-138 -18q-32 -4 -46 -6t-33.5 -7t-25.5 -7.5t-16 -12.5t-12 -16t-6.5 -24.5t-5 -32t-3.5 -43.5q-7 -106 -34 -125q-16 -12 -26 25q-7 28 -7 75zM1011 687v137l-161 12q-112 8 -113 10l136 -1l184 -3l9 -145
q5 -66 -1.5 -106t-21.5 -40q-13 0 -22.5 40t-9.5 96z" />
    <glyph glyph-name="chahao" unicode="&#xe631;" 
d="M512 384zM0 384q0 -139 68.5 -257t186.5 -186.5t257 -68.5t257 68.5t186.5 186.5t68.5 257t-68.5 257t-186.5 186.5t-257 68.5t-257 -68.5t-186.5 -186.5t-68.5 -257zM543 384l231 231q6 6 6 15t-6.5 15.5t-15.5 6.5t-15 -6l-231 -231l-231 231q-6 6 -15 6t-15.5 -6.5
t-6.5 -15.5t6 -15l231 -231l-231 -231q-8 -7 -8 -16q0 -10 6.5 -16.5t16.5 -6.5q9 0 16 8l231 231l231 -231q6 -7 15.5 -7t16 6.5t6.5 16t-7 15.5z" />
    <glyph glyph-name="gengduo1" unicode="&#xe620;" 
d="M0 384q0 -139 68.5 -257t186.5 -186.5t257 -68.5t257 68.5t186.5 186.5t68.5 257t-68.5 257t-186.5 186.5t-257 68.5t-257 -68.5t-186.5 -186.5t-68.5 -257zM795 347h-228v-246q0 -19 -13.5 -32.5t-32.5 -13.5t-32.5 13.5t-13.5 32.5v246h-246q-19 0 -32.5 13.5
t-13.5 32.5t13.5 32.5t32.5 13.5h246v228q0 19 13.5 32.5t32.5 13.5t32.5 -13.5t13.5 -32.5v-228h228q19 0 32.5 -13.5t13.5 -32.5t-13.5 -32.5t-32.5 -13.5z" />
    <glyph glyph-name="chahao1" unicode="&#xe614;" horiz-adv-x="1047" 
d="M0 384v0q0 -104 41.5 -199t111.5 -163.5t167 -109t203.5 -40.5t203.5 40.5t167 109t111.5 163.5t41.5 199v0q0 104 -41.5 199t-111.5 163.5t-167 109t-203.5 40.5t-203.5 -40.5t-167 -109t-111.5 -163.5t-41.5 -199v0zM739 553l-38 37l-181 -176l-181 176l-38 -37
l181 -177l-181 -177l38 -37l181 177l181 -177l38 37l-181 177z" />
    <glyph glyph-name="icon_nlms_plk_huati" unicode="&#xe661;" 
d="M965 592h-234l39 221q1 3 1 6q0 16 -10.5 28t-26.5 14h-6q-15 0 -26.5 -9.5t-15.5 -23.5l-41 -236h-206l40 230q1 3 1 6q0 14 -9 25q-12 17 -34 17q-15 0 -26.5 -9.5t-14.5 -23.5l-43 -245h-249q-17 -1 -29 -13.5t-12 -29.5t12 -29.5t29 -13.5h234l-38 -211h-241
q-18 0 -30.5 -12.5t-12.5 -30t12.5 -30t30.5 -12.5h226l-45 -255v-6q0 -16 10.5 -28t25.5 -14q3 -1 6 -1q16 0 27.5 10t14.5 24l48 270h206l-47 -264q-1 -3 -1 -6q0 -14 9 -26q13 -16 34 -16v0q15 0 27 9.5t15 23.5l49 279h256q18 0 30.5 12.5t12.5 30t-12.5 30t-30.5 12.5
h-241l37 211h250q17 0 29.5 12.5t12.5 30.5t-12.5 30.5t-30.5 12.5v0zM630 506l-37 -211h-206l37 211h206z" />
    <glyph glyph-name="tansuo" unicode="&#xe650;" 
d="M515 384zM470 384q0 -19 13.5 -32t32 -13t31.5 13t13 32t-13 32t-31.5 13t-32 -13t-13.5 -32zM691 653l-297 -167l-128 -320q-27 -55 -8.5 -71.5t68.5 17.5l298 166l128 320q27 58 9.5 74t-70.5 -19zM595 304l-307 -170l134 330l308 173zM509 867q-99 0 -188.5 -38
t-154 -102.5t-102.5 -154t-38 -188.5t38 -188.5t103 -154t154.5 -102.5t187.5 -38t187 38.5t154 103t103.5 154t38.5 187.5t-38.5 187.5t-103.5 154t-154 103t-187 38.5zM509 -48q-117 0 -216.5 57.5t-157.5 157t-58 217.5q0 117 57.5 216.5t157 157.5t217.5 58
q116 0 215.5 -57.5t158 -157t58.5 -217.5q0 -87 -34.5 -167t-92.5 -138t-138 -92.5t-167 -34.5z" />
    <glyph glyph-name="wenhao2" unicode="&#xe887;" 
d="M519 102q24 0 40 16t16 39q0 24 -16 39.5t-40 15.5t-40 -15.5t-16 -39.5q0 -23 16 -39t40 -16zM565 327q0 14 19 31q21 18 43 36q23 20 43 45t22 58q2 36 -7 67t-30 53t-54.5 35.5t-77.5 13.5q-56 0 -93 -19.5t-60 -47.5t-32 -57.5t-8 -49.5q1 -24 15 -35t30.5 -11.5
t30 9t13.5 28.5q0 10 7 26t19 31t29 25t38 10q41 0 65.5 -20.5t22.5 -51.5q0 -16 -9 -29t-23 -25.5t-30 -25t-30.5 -25.5t-24 -28.5t-10.5 -33.5l1 -35q0 -14 13 -26t34 -13q21 1 33 13.5t11 29.5v22zM565 327zM511 779q107 0 198 -53t144 -144t53 -198t-53 -198t-144 -144
t-198 -53t-198 53t-143.5 144t-52.5 198t52.5 198t143.5 144t198 53zM511 835q-92 0 -175.5 -35.5t-143.5 -96t-96 -144t-36 -175.5t36 -175.5t96 -144t143.5 -96t175.5 -35.5t175.5 35.5t144 96t96 144t35.5 175.5t-35.5 175.5t-96 144t-144 96t-175.5 35.5z" />
    <glyph glyph-name="saoyisao2" unicode="&#xe657;" horiz-adv-x="1097" 
d="M1065 414h-1032v0q-13 0 -21.5 -9t-8.5 -21.5t8.5 -21t21.5 -8.5v0h1032v0q13 0 21.5 8.5t8.5 21t-8.5 21.5t-21.5 9v0zM67 574q12 0 21 8.5t9 21.5v188q0 18 13 31t31 13h260v0q13 0 21.5 9t8.5 21t-8.5 21t-21.5 9v0h-260q-43 0 -73.5 -30.5t-30.5 -73.5v-188
q0 -13 9 -21.5t21 -8.5zM401 -68h-260q-18 0 -31 13t-13 31v183q0 12 -9 21t-21 9t-21 -9t-9 -21v-183q0 -43 30.5 -73.5t73.5 -30.5h260q13 0 21.5 9t8.5 21t-8.5 21t-21.5 9zM1031 189v0q-13 0 -22 -9t-9 -21v-183q0 -18 -12.5 -31t-31.5 -13h-258v0q-12 0 -21 -9t-9 -21
t9 -21t21 -9v0h258q43 0 74 30.5t31 73.5v183v0q0 12 -9 21t-21 9zM698 836h258v0q18 0 31 -13t13 -31v-188q0 -13 9 -21.5t21.5 -8.5t21.5 8.5t9 21.5v188q-1 43 -31 73.5t-73 30.5h-259q-12 0 -21 -9t-9 -21.5t9 -21t21 -8.5z" />
  </font>
</defs>
</svg>
